<svg width="17" height="17" viewBox="0 0 17 17" fill="none" xmlns="http://www.w3.org/2000/svg">
<mask id="path-1-inside-1" fill="white">
<path fill-rule="evenodd" clip-rule="evenodd" d="M15.4219 11.1562C15.8281 10.1562 16.0312 9.09375 16.0312 7.96875C16.0312 6.875 15.8281 5.84375 15.4219 4.875C15.0156 3.90625 14.4531 3.0625 13.7344 2.34375C13.0156 1.625 12.1719 1.0625 11.2031 0.65625C10.2344 0.21875 9.1875 0 8.0625 0C6.96875 0 5.92188 0.21875 4.92188 0.65625C3.95312 1.0625 3.09375 1.625 2.34375 2.34375C1.625 3.0625 1.04688 3.90625 0.609375 4.875C0.203125 5.84375 0 6.875 0 7.96875C0 9.09375 0.203125 10.1562 0.609375 11.1562C1.04688 12.125 1.625 12.9688 2.34375 13.6875C3.09375 14.4062 3.95312 14.9688 4.92188 15.375C5.92188 15.8125 6.96875 16.0312 8.0625 16.0312C9.1875 16.0312 10.2344 15.8125 11.2031 15.375C12.1719 14.9688 13.0156 14.4062 13.7344 13.6875C14.4531 12.9688 15.0156 12.125 15.4219 11.1562Z"/>
</mask>
<path d="M15.4219 11.1562L17.2663 11.9297L17.2706 11.9194L17.2748 11.909L15.4219 11.1562ZM11.2031 0.65625L10.38 2.47899L10.4047 2.49015L10.4297 2.50064L11.2031 0.65625ZM4.92188 0.65625L5.69533 2.50064L5.70947 2.49471L5.72351 2.48856L4.92188 0.65625ZM2.34375 2.34375L0.959939 0.899774L0.94458 0.914493L0.929536 0.929536L2.34375 2.34375ZM0.609375 4.875L-1.21337 4.05183L-1.22453 4.07654L-1.23501 4.10155L0.609375 4.875ZM0.609375 11.1562L-1.24356 11.909L-1.22914 11.9445L-1.21337 11.9794L0.609375 11.1562ZM2.34375 13.6875L0.929536 15.1017L0.94458 15.1168L0.959939 15.1315L2.34375 13.6875ZM4.92188 15.375L5.72351 13.5427L5.70947 13.5365L5.69533 13.5306L4.92188 15.375ZM11.2031 15.375L10.4297 13.5306L10.4047 13.5411L10.38 13.5523L11.2031 15.375ZM14.0312 7.96875C14.0312 8.8468 13.874 9.65265 13.5689 10.4035L17.2748 11.909C17.7823 10.6598 18.0312 9.3407 18.0312 7.96875H14.0312ZM13.5775 5.64845C13.8768 6.36219 14.0312 7.12944 14.0312 7.96875H18.0312C18.0312 6.62056 17.7795 5.32531 17.2663 4.10155L13.5775 5.64845ZM12.3202 3.75796C12.8491 4.28691 13.2682 4.91102 13.5775 5.64845L17.2663 4.10155C16.763 2.90148 16.0571 1.83809 15.1486 0.929536L12.3202 3.75796ZM10.4297 2.50064C11.1671 2.80989 11.7912 3.22901 12.3202 3.75796L15.1486 0.929536C14.24 0.0209861 13.1766 -0.684887 11.9766 -1.18814L10.4297 2.50064ZM8.0625 2C8.92053 2 9.68487 2.16508 10.38 2.47899L12.0263 -1.16649C10.7839 -1.72758 9.45447 -2 8.0625 -2V2ZM5.72351 2.48856C6.47019 2.16189 7.24409 2 8.0625 2V-2C6.69341 -2 5.37356 -1.72439 4.12024 -1.17606L5.72351 2.48856ZM3.72756 3.78773C4.29837 3.2407 4.95027 2.81308 5.69533 2.50064L4.14842 -1.18814C2.95598 -0.688083 1.88913 0.009297 0.959939 0.899774L3.72756 3.78773ZM2.43212 5.69817C2.77484 4.93928 3.21769 4.29824 3.75796 3.75796L0.929536 0.929536C0.0323112 1.82676 -0.681091 2.87322 -1.21337 4.05183L2.43212 5.69817ZM2 7.96875C2 7.12944 2.15445 6.36219 2.45376 5.64845L-1.23501 4.10155C-1.7482 5.32531 -2 6.62056 -2 7.96875H2ZM2.46231 10.4035C2.15728 9.65265 2 8.8468 2 7.96875H-2C-2 9.3407 -1.75103 10.6598 -1.24356 11.909L2.46231 10.4035ZM3.75796 12.2733C3.21769 11.733 2.77484 11.092 2.43212 10.3331L-1.21337 11.9794C-0.681091 13.158 0.0323112 14.2045 0.929536 15.1017L3.75796 12.2733ZM5.69533 13.5306C4.95027 13.2182 4.29837 12.7905 3.72756 12.2435L0.959939 15.1315C1.88913 16.022 2.95598 16.7193 4.14842 17.2194L5.69533 13.5306ZM8.0625 14.0312C7.24409 14.0312 6.47019 13.8694 5.72351 13.5427L4.12024 17.2073C5.37356 17.7556 6.69341 18.0312 8.0625 18.0312V14.0312ZM10.38 13.5523C9.68487 13.8662 8.92053 14.0312 8.0625 14.0312V18.0312C9.45447 18.0312 10.7839 17.7588 12.0263 17.1977L10.38 13.5523ZM12.3202 12.2733C11.7912 12.8022 11.1671 13.2214 10.4297 13.5306L11.9766 17.2194C13.1766 16.7161 14.24 16.0103 15.1486 15.1017L12.3202 12.2733ZM13.5775 10.3828C13.2682 11.1202 12.8491 11.7443 12.3202 12.2733L15.1486 15.1017C16.0571 14.1932 16.763 13.1298 17.2663 11.9297L13.5775 10.3828Z" fill="white" mask="url(#path-1-inside-1)"/>
</svg>
