<svg width="47" height="71" viewBox="0 0 47 71" fill="none" xmlns="http://www.w3.org/2000/svg">
<mask id="path-1-inside-1" fill="white">
<path fill-rule="evenodd" clip-rule="evenodd" d="M0 70.1719H12.8906V63.75L21.7969 51.9375L31.9688 70.1719H46.6875L30.0469 40.9688L46.6875 20.0625H31.9688L12.8906 44.25V0H0V70.1719Z"/>
</mask>
<path d="M12.8906 70.1719V72.1719H14.8906V70.1719H12.8906ZM0 70.1719H-2V72.1719H0V70.1719ZM12.8906 63.75L11.2937 62.5459L10.8906 63.0805V63.75H12.8906ZM21.7969 51.9375L23.5435 50.9632L22.048 48.2823L20.1999 50.7334L21.7969 51.9375ZM31.9688 70.1719L30.2221 71.1462L30.7943 72.1719H31.9688V70.1719ZM46.6875 70.1719V72.1719H50.1291L48.4252 69.1817L46.6875 70.1719ZM30.0469 40.9688L28.4821 39.7232L27.6389 40.7826L28.3092 41.9589L30.0469 40.9688ZM46.6875 20.0625L48.2523 21.308L50.8356 18.0625H46.6875V20.0625ZM31.9688 20.0625V18.0625H30.999L30.3984 18.8239L31.9688 20.0625ZM12.8906 44.25H10.8906V50.0151L14.4609 45.4886L12.8906 44.25ZM12.8906 0H14.8906V-2H12.8906V0ZM0 0V-2H-2V0H0ZM12.8906 68.1719H0V72.1719H12.8906V68.1719ZM10.8906 63.75V70.1719H14.8906V63.75H10.8906ZM20.1999 50.7334L11.2937 62.5459L14.4876 64.9541L23.3938 53.1416L20.1999 50.7334ZM33.7154 69.1975L23.5435 50.9632L20.0503 52.9118L30.2221 71.1462L33.7154 69.1975ZM46.6875 68.1719H31.9688V72.1719H46.6875V68.1719ZM28.3092 41.9589L44.9498 71.162L48.4252 69.1817L31.7846 39.9786L28.3092 41.9589ZM45.1227 18.817L28.4821 39.7232L31.6117 42.2143L48.2523 21.308L45.1227 18.817ZM31.9688 22.0625H46.6875V18.0625H31.9688V22.0625ZM14.4609 45.4886L33.5391 21.3011L30.3984 18.8239L11.3203 43.0114L14.4609 45.4886ZM10.8906 0V44.25H14.8906V0H10.8906ZM0 2H12.8906V-2H0V2ZM2 70.1719V0H-2V70.1719H2Z" fill="white" mask="url(#path-1-inside-1)"/>
</svg>
